# xmcd
#
# Track frame offsets: 
#        150
#        18440
#        40157
#        51207
#        64435
#        79677
#        92830
#        104847
#        115137
#        130575
#
# Disc length: 2020 seconds
#
# Revision: 0
# Processed by: cddbd v1.5PL3 Copyright (c) Steve Scherf et al.
# Submitted via: ExactAudioCopy v0.95a5
#
DISCID=8507e20a
DTITLE=Ben Andrews - Night Ride
DYEAR=1999
DGENRE=Blues
TTITLE0=See That My Grave Is Kept Clean
TTITLE1=Broke Down Engine Blues
TTITLE2=Another Man Done Gone
TTITLE3=Warm It Up To Me
TTITLE4=The Reindeer
TTITLE5=I Don't Want Your Woman Blues
TTITLE6=Long Tall Mama
TTITLE7=The Boy Was Kissing The Girl (And Playing The Guitar At The Sa
TTITLE7=me Time) Rag
TTITLE8=Leave It All Behind
TTITLE9=Night Ride
EXTD=
EXTT0=
EXTT1=
EXTT2=
EXTT3=
EXTT4=
EXTT5=
EXTT6=
EXTT7=
EXTT8=
EXTT9=
PLAYORDER=
